# xmcd CD database file
#
# Track frame offsets:
#	150
#	37166
#	71480
#	102952
#	132422
#	155164
#	188081
#	230210
#
# Disc length: 3558 seconds
#
# Revision: 0
# Processed by: cddbd v1.4PL0 Copyright (c) Steve Scherf et al.
# Submitted via: CDex 1.50Beta7
#
DISCID=750de408
DTITLE=Michel Petrucciani Trio - Live In Concert
DYEAR=1900
DGENRE=Jazz
TTITLE0=Little Peace in C
TTITLE1=Brazilian Like
TTITLE2=Chloe Meets Gershwin
TTITLE3=September 2nd
TTITLE4=So What
TTITLE5=Guadelupe
TTITLE6=Take The A Train
TTITLE7=Cantabile
EXTD=
EXTT0=
EXTT1=
EXTT2=
EXTT3=
EXTT4=
EXTT5=
EXTT6=
EXTT7=
PLAYORDER=
